<?xml version="1.0" standalone="no"?>
<!DOCTYPE svg PUBLIC "-//W3C//DTD SVG 1.1//EN"
  "http://www.w3.org/Graphics/SVG/1.1/DTD/svg11.dtd">
<svg width="267.61700439453125mm" height="237.01499938964844mm" viewBox="-135.11900329589844 -115.11599731445312 267.61700439453125 237.01499938964844" xmlns="http://www.w3.org/2000/svg" version="1.1">
	<title>svgOutput</title>
	<desc>made with tinkercad</desc>
<path d="M 131.4980010986328 113.8030014038086 L 131.07200622558594 114.3215103149414 L 130.84072875976562 114.60299682617188 L 125.66799926757812 120.89900207519531 L 123.39700317382812 120.00797271728516 L 106.59942626953125 113.41741180419922 L 98.30400085449219 110.16268920898438 L 95.28199768066406 108.97699737548828 L 93.50199890136719 106.51100158691406 L 86.82310485839844 97.25812530517578 L 85.26239776611328 95.09593963623047 L 85.26100158691406 95.09400177001953 L 65.53600311279297 78.87861633300781 L 49.305538177490234 65.53600311279297 L 42.17093276977539 59.670833587646484 L 42.170814514160156 59.670738220214844 L 42.170799255371094 59.67076110839844 L 42.1707878112793 59.6707763671875 L 42.16904067993164 59.67295837402344 L 41.50532150268555 59.127159118652344 L 34.33570098876953 53.23054504394531 L 34.331077575683594 53.22753143310547 L 33.41600036621094 52.63100051879883 L 32.768001556396484 52.3991813659668 L 32.22800064086914 52.20600128173828 L 31.131000518798828 52.08399963378906 L 8.6899995803833 52.08399963378906 L 8.6899995803833 52.0890007019043 L -11.3100004196167 52.0890007019043 L -11.3100004196167 52.08399963378906 L -11.3100004196167 52.07899856567383 L -32.768001556396484 52.07899856567383 L -33.75199890136719 52.07899856567383 L -34.8489990234375 52.20100021362305 L -36.0369987487793 52.625999450683594 L -36.95188522338867 53.222408294677734 L -36.95442199707031 53.22406005859375 L -40.800052642822266 56.386688232421875 L -40.959999084472656 56.518226623535156 L -41.964107513427734 57.34400177001953 L -44.12628173828125 59.122161865234375 L -44.78953552246094 59.667579650878906 L -44.790000915527344 59.66796112060547 L -44.79175567626953 59.6657600402832 L -49.152000427246094 63.250274658203125 L -51.9323844909668 65.53600311279297 L -65.53600311279297 76.71939849853516 L -87.88099670410156 95.08899688720703 L -89.44343566894531 97.25337219238281 L -96.12300109863281 106.5062484741211 L -97.90299987792969 108.97200012207031 L -98.30400085449219 109.12933349609375 L -109.20883178710938 113.4078598022461 L -112.25492095947266 114.60299682617188 L -128.28900146484375 120.89399719238281 L -129.9029998779297 118.92951202392578 L -131.07200622558594 117.50666046142578 L -134.11900329589844 113.7979965209961 L -134.11900329589844 109.49700164794922 L -131.07200622558594 104.37104797363281 L -129.9029998779297 102.4044418334961 L -127.46559143066406 98.30400085449219 L -118.9540023803711 83.98500061035156 L -114.73095703125 81.91999816894531 L -103.29499816894531 76.3280029296875 L -101.13504028320312 74.55232238769531 L -98.30400085449219 72.22492218017578 L -90.1676254272461 65.53600311279297 L -65.53600311279297 45.28632354736328 L -50.30876159667969 32.768001556396484 L -49.15776062011719 31.821760177612305 L -48.658199310302734 31.410999298095703 L -36.811241149902344 21.670488357543945 L -36.80699920654297 21.66699981689453 L -36.80402755737305 21.663982391357422 L -35.46799850463867 20.308000564575195 L -34.10100173950195 18.165000915527344 L -33.31399917602539 15.75 L -33.11399841308594 13.85099983215332 L -33.11399841308594 3.2890000343322754 L -33.31399917602539 1.3890000581741333 L -33.76664733886719 4.440892164675075e-17 L -34.10100173950195 -1.0260000228881836 L -35.46799850463867 -3.1679999828338623 L -36.80547332763672 -4.527448654174805 L -36.80699920654297 -4.5289998054504395 L -45.80337905883789 -11.924883842468262 L -49.272499084472656 -14.776829719543457 L -49.34128952026367 -14.833247184753418 L -51.23219680786133 -16.384000778198242 L -56.44295883178711 -20.65739631652832 L -56.4472770690918 -20.660938262939453 L -57.627044677734375 -21.628477096557617 L -57.69443893432617 -21.683746337890625 L -61.26499938964844 -24.61199951171875 L -61.25333023071289 -24.62620735168457 L -61.253326416015625 -24.62621307373047 L -61.253318786621094 -24.626218795776367 L -65.53600311279297 -28.146942138671875 L -101.61067962646484 -57.80335998535156 L -103.29499816894531 -59.1879997253418 L -116.27532196044922 -65.53600311279297 L -118.9540023803711 -66.84600067138672 L -123.7427978515625 -74.57799530029297 L -127.26007843017578 -80.25700378417969 L -128.29005432128906 -81.91999816894531 L -129.9029998779297 -84.52425384521484 L -131.07200622558594 -86.4117202758789 L -133.95399475097656 -91.06500244140625 L -133.95399475097656 -95.36499786376953 L -131.07200622558594 -98.87283325195312 L -128.12399291992188 -102.46099853515625 L -116.17243194580078 -98.30400085449219 L -114.09724426269531 -97.58220672607422 L -109.03136444091797 -95.8201904296875 L -98.30400085449219 -92.08899688720703 L -97.56800079345703 -91.83300018310547 L -87.88099670410156 -77.9489974975586 L -85.94587707519531 -76.3644790649414 L -72.72142028808594 -65.53600311279297 L -65.53600311279297 -59.65241622924805 L -45.77360153198242 -43.47052764892578 L -45.76499938964844 -43.48099899291992 L -35.09469223022461 -34.72960662841797 L -33.80982208251953 -34.050392150878906 L -33.53099822998047 -33.90299987792969 L -32.99028778076172 -33.86274337768555 L -31.081079483032227 -33.72060012817383 L -30.979000091552734 -33.712921142578125 L -30.978853225708008 -33.712989807128906 L -30.88640022277832 -33.75672149658203 L -28.663999557495117 -34.805999755859375 L -28.661977767944336 -34.808876037597656 L -27.191999435424805 -36.900001525878906 L -26.834999084472656 -38.643001556396484 L -26.834999084472656 -65.53600311279297 L -26.834999084472656 -81.91999816894531 L -26.834999084472656 -88.91654968261719 L -26.834999084472656 -95.81300354003906 L -26.66900062561035 -96.57099914550781 L -26.05299949645996 -97.38800048828125 L -24.14344024658203 -98.30400085449219 L -23.19700050354004 -98.75800323486328 L -22.288000106811523 -99.68900299072266 L -21.479000091552734 -101.45099639892578 L -21.270999908447266 -102.73100280761719 L -21.270999908447266 -106.52667236328125 L -21.270999908447266 -106.77899932861328 L -20.825000762939453 -109.1510009765625 L -18.743000030517578 -112.3499984741211 L -16.384000778198242 -113.58071899414062 L -15.367584228515625 -114.11100006103516 L -15.357999801635742 -114.11599731445312 L -15.201647758483887 -114.11100006103516 L -11.543000221252441 -113.99400329589844 L -11.3100004196167 -113.85261535644531 L -9.06911849975586 -112.49283599853516 L -8.384763717651367 -112.07756805419922 L -8.279999732971191 -112.01399993896484 L -8.192000389099121 -111.85781860351562 L -6.406000137329102 -108.68800354003906 L -6.0980000495910645 -106.77899932861328 L -6.0980000495910645 -102.73100280761719 L -5.811999797821045 -101.18000030517578 L -4.938000202178955 -99.50700378417969 L -3.4579999446868896 -98.33300018310547 L -3.351959228515625 -98.30400085449219 L -1.3109999895095825 -97.74584197998047 L -1.3109999895095825 -97.74056243896484 L -1.3109999895095825 -97.71099853515625 L -1.309000015258789 -97.71099853515625 L 0 -97.71099853515625 L 8.6899995803833 -97.71099853515625 L 8.6899995803833 -97.70800018310547 L 16.384000778198242 -97.70800018310547 L 16.76199722290039 -97.70800018310547 L 18.80741310119629 -97.70800018310547 L 20.113147735595703 -97.70800018310547 L 22.75448226928711 -97.70800018310547 L 23.43199920654297 -97.38300323486328 L 24.04800033569336 -96.56600189208984 L 24.214000701904297 -95.80799865722656 L 24.214000701904297 -88.91155242919922 L 24.214000701904297 -81.91999816894531 L 24.214000701904297 -65.53600311279297 L 24.214000701904297 -38.63800048828125 L 24.570999145507812 -36.89500045776367 L 26.040977478027344 -34.80387496948242 L 26.042999267578125 -34.80099868774414 L 28.265399932861328 -33.7517204284668 L 28.357852935791016 -33.70798873901367 L 28.357999801635742 -33.70792007446289 L 28.460079193115234 -33.715599060058594 L 30.90999984741211 -33.89799880981445 L 32.476505279541016 -34.72609329223633 L 43.14500045776367 -43.47600173950195 L 43.15325164794922 -43.4659538269043 L 65.53600311279297 -61.79306411743164 L 70.10721588134766 -65.53600311279297 L 83.32584381103516 -76.35948181152344 L 85.26100158691406 -77.94400024414062 L 94.9469985961914 -91.8280029296875 L 98.30400085449219 -92.99563598632812 L 106.42105865478516 -95.81890869140625 L 111.49590301513672 -97.58404541015625 L 113.56580352783203 -98.30400085449219 L 125.50299835205078 -102.45600128173828 L 128.91482543945312 -98.30400085449219 L 131.07200622558594 -95.67884063720703 L 131.33399963378906 -95.36000061035156 L 131.33399963378906 -91.05999755859375 L 131.07200622558594 -90.63697814941406 L 125.67315673828125 -81.91999816894531 L 124.64008331298828 -80.25199890136719 L 121.122802734375 -74.572998046875 L 116.33399963378906 -66.84100341796875 L 114.68800354003906 -66.03607940673828 L 113.6653823852539 -65.53600311279297 L 100.67400360107422 -59.18299865722656 L 98.98967742919922 -57.79835891723633 L 65.53600311279297 -30.2966251373291 L 58.63291549682617 -24.6217098236084 L 58.64500045776367 -24.60700035095215 L 53.82727813720703 -20.65593910217285 L 53.822959899902344 -20.65239715576172 L 49.152000427246094 -16.821697235107422 L 48.61829376220703 -16.384000778198242 L 46.309898376464844 -14.490860939025879 L 46.238468170166016 -14.432279586791992 L 43.18297576904297 -11.920374870300293 L 34.18600082397461 -4.52400016784668 L 34.18447494506836 -4.522448539733887 L 32.84700012207031 -3.1630001068115234 L 32.768001556396484 -3.039212226867676 L 31.479999542236328 -1.0210000276565552 L 31.220273971557617 -0.22400000691413874 L 31.147275924682617 4.440892164675075e-17 L 30.69300079345703 1.3940000534057617 L 30.493000030517578 3.2939999103546143 L 30.493000030517578 13.855999946594238 L 30.69300079345703 15.755000114440918 L 30.897977828979492 16.384000778198242 L 31.220600128173828 17.374000549316406 L 31.479999542236328 18.170000076293945 L 32.768001556396484 20.18915367126465 L 32.84700012207031 20.312999725341797 L 34.18302536010742 21.668981552124023 L 34.18600082397461 21.672000885009766 L 34.19550704956055 21.6798152923584 L 46.037200927734375 31.416000366210938 L 46.53675842285156 31.826759338378906 L 47.681678771972656 32.768001556396484 L 48.383541107177734 33.345001220703125 L 49.152000427246094 33.976749420166016 L 65.53600311279297 47.446048736572266 L 87.54054260253906 65.53600311279297 L 98.30400085449219 74.3846435546875 L 98.5140380859375 74.55731964111328 L 100.67400360107422 76.33300018310547 L 112.1004638671875 81.91999816894531 L 114.68800354003906 83.1851806640625 L 116.33399963378906 83.98999786376953 L 124.84205627441406 98.30400085449219 L 127.302001953125 102.442626953125 L 131.07200622558594 108.78529357910156 L 131.4980010986328 109.50199890136719 L 131.4980010986328 113.8030014038086 M 104.89244079589844 84.49295806884766 L 104.03804016113281 85.18800354003906 L 104.02655792236328 85.21907806396484 L 103.75199890136719 85.96499633789062 L 103.75199890136719 89.50700378417969 L 103.97440338134766 90.11199951171875 L 104.02655792236328 90.2538833618164 L 104.03762817382812 90.28388977050781 L 104.03804016113281 90.28500366210938 L 104.89244079589844 90.97811889648438 L 104.9280014038086 91.00700378417969 L 105.71399688720703 91.00700378417969 L 106.49600219726562 90.37261199951172 L 106.60399627685547 90.28500366210938 L 106.66737365722656 90.11199951171875 L 106.88899993896484 89.50700378417969 L 106.88899993896484 85.96499633789062 L 106.60399627685547 85.18800354003906 L 105.71399688720703 84.46399688720703 L 104.92803955078125 84.46399688720703 L 104.9280014038086 84.46399688720703 L 104.89244079589844 84.49295806884766 M -107.51244354248047 107.16307830810547 L -106.65804290771484 106.46900177001953 L -106.64659881591797 106.43788146972656 L -106.37300109863281 105.69100189208984 L -106.37300109863281 102.1500015258789 L -106.64659881591797 101.40312194824219 L -106.65763092041016 101.37311553955078 L -106.65804290771484 101.37200164794922 L -107.51244354248047 100.67696380615234 L -107.5479965209961 100.64800262451172 L -108.33499908447266 100.64800262451172 L -109.2249984741211 101.37200164794922 L -109.50900268554688 102.1500015258789 L -109.50900268554688 105.69100189208984 L -109.2249984741211 106.46900177001953 L -108.33499908447266 107.19200134277344 L -107.54804229736328 107.19200134277344 L -107.5479965209961 107.19200134277344 L -107.51244354248047 107.16307830810547 M 38.437400817871094 39.33772659301758 L 38.42531204223633 39.32683181762695 L 38.319000244140625 39.23099899291992 L 38.165000915527344 39.117000579833984 L 38 39.018001556396484 L 37.82699966430664 38.93600082397461 L 37.759498596191406 38.9119987487793 L 37.64699935913086 38.87200164794922 L 37.46099853515625 38.82500076293945 L 37.270999908447266 38.797000885009766 L 37.08000183105469 38.78799819946289 L 36.888999938964844 38.797000885009766 L 36.86399841308594 38.80068588256836 L 36.69900131225586 38.82500076293945 L 36.51300048828125 38.87200164794922 L 36.4005012512207 38.9119987487793 L 36.33300018310547 38.93600082397461 L 36.15999984741211 39.018001556396484 L 35.994998931884766 39.117000579833984 L 35.840999603271484 39.23099899291992 L 35.69900131225586 39.35900115966797 L 35.57099914550781 39.500999450683594 L 35.457000732421875 39.654998779296875 L 35.358001708984375 39.81999969482422 L 35.303016662597656 39.93600082397461 L 35.2760009765625 39.99300003051758 L 35.21200180053711 40.17300033569336 L 35.165000915527344 40.35900115966797 L 35.137001037597656 40.54899978637695 L 35.12799835205078 40.7400016784668 L 35.137001037597656 40.930999755859375 L 35.141273498535156 40.959999084472656 L 35.165000915527344 41.12099838256836 L 35.21200180053711 41.30699920654297 L 35.2760009765625 41.48699951171875 L 35.358001708984375 41.65999984741211 L 35.457000732421875 41.82500076293945 L 35.57099914550781 41.979000091552734 L 35.69900131225586 42.12099838256836 L 35.840999603271484 42.249000549316406 L 35.994998931884766 42.362998962402344 L 36.15999984741211 42.46200180053711 L 36.33300018310547 42.54399871826172 L 36.51300048828125 42.608001708984375 L 36.69900131225586 42.654998779296875 L 36.86399841308594 42.679317474365234 L 36.888999938964844 42.68299865722656 L 36.96086883544922 42.686763763427734 L 36.97474670410156 42.6874885559082 L 37.08000183105469 42.69300079345703 L 37.270999908447266 42.68299865722656 L 37.46099853515625 42.654998779296875 L 37.64699935913086 42.608001708984375 L 37.716583251953125 42.58325958251953 L 37.7500114440918 42.571372985839844 L 37.82699966430664 42.54399871826172 L 37.88800048828125 42.51508712768555 L 38 42.46200180053711 L 38.165000915527344 42.362998962402344 L 38.319000244140625 42.249000549316406 L 38.46099853515625 42.12099838256836 L 38.5890007019043 41.979000091552734 L 38.702999114990234 41.82500076293945 L 38.801998138427734 41.65999984741211 L 38.88399887084961 41.48699951171875 L 38.9119987487793 41.40824890136719 L 38.948001861572266 41.30699920654297 L 38.994998931884766 41.12099838256836 L 39.01872634887695 40.959999084472656 L 39.02299880981445 40.930999755859375 L 39.03300094604492 40.7400016784668 L 39.02299880981445 40.54899978637695 L 38.994998931884766 40.35900115966797 L 38.948001861572266 40.17300033569336 L 38.9119987487793 40.07175064086914 L 38.88399887084961 39.99300003051758 L 38.801998138427734 39.81999969482422 L 38.702999114990234 39.654998779296875 L 38.5890007019043 39.500999450683594 L 38.545326232910156 39.45254898071289 L 38.46099853515625 39.35900115966797 L 38.437400817871094 39.33772659301758 M 23.434999465942383 0.35800001025199896 L 22.993959426879883 4.440892164675075e-17 L 22.718000411987305 -0.22400000691413874 L 22.08300018310547 -0.22400000691413874 L 21.80704116821289 4.440892164675075e-17 L 21.365999221801758 0.35800001025199896 L 21.13599967956543 0.9860000014305115 L 21.13599967956543 16.163999557495117 L 21.21670150756836 16.384000778198242 L 21.365999221801758 16.791000366210938 L 22.08300018310547 17.374000549316406 L 22.718000411987305 17.374000549316406 L 23.434999465942383 16.791000366210938 L 23.584299087524414 16.384000778198242 L 23.665000915527344 16.163999557495117 L 23.665000915527344 0.9860000014305115 L 23.434999465942383 0.35800001025199896 M -15.803000450134277 -105.49600219726562 L -14.137999534606934 -104.81400299072266 L -12.354000091552734 -105.0469970703125 L -11.3100004196167 -105.83636474609375 L -10.918999671936035 -106.13200378417969 L -10.21399974822998 -107.78600311279297 L -10.503999710083008 -109.78299713134766 L -11.3100004196167 -110.7468490600586 L -11.657999992370605 -111.16300201416016 L -13.343999862670898 -111.79199981689453 L -15.119000434875488 -111.5009994506836 L -16.384000778198242 -110.47815704345703 L -16.518999099731445 -110.36900329589844 L -17.17300033569336 -108.69300079345703 L -16.91200065612793 -106.91300201416016 L -16.384000778198242 -106.23835754394531 L -15.803000450134277 -105.49600219726562 M -22.538999557495117 -91.5999984741211 L -21.972000122070312 -92.16600036621094 L -21.115999221801758 -94 L -21.048999786376953 -94.79900360107422 L -21.533000946044922 -95.7959976196289 L -22.224000930786133 -96.11799621582031 L -23.298999786376953 -95.8489990234375 L -23.867000579833984 -95.28299713134766 L -24.722000122070312 -93.4489974975586 L -24.790000915527344 -92.6500015258789 L -24.305999755859375 -91.6520004272461 L -23.615999221801758 -91.33000183105469 L -22.538999557495117 -91.5999984741211 M -40.93899917602539 -26.39900016784668 L -40.959999084472656 -26.380069732666016 L -41.08100128173828 -26.270999908447266 L -41.20899963378906 -26.128999710083008 L -41.323001861572266 -25.975000381469727 L -41.422000885009766 -25.809999465942383 L -41.50400161743164 -25.636999130249023 L -41.56800079345703 -25.457000732421875 L -41.6150016784668 -25.270999908447266 L -41.643001556396484 -25.08099937438965 L -41.652000427246094 -24.889999389648438 L -41.643001556396484 -24.698999404907227 L -41.624874114990234 -24.576000213623047 L -41.6150016784668 -24.509000778198242 L -41.56800079345703 -24.322999954223633 L -41.50400161743164 -24.14299964904785 L -41.422000885009766 -23.969999313354492 L -41.323001861572266 -23.80500030517578 L -41.20899963378906 -23.650999069213867 L -41.08100128173828 -23.509000778198242 L -40.959999084472656 -23.39992904663086 L -40.93899917602539 -23.381000518798828 L -40.78499984741211 -23.267000198364258 L -40.619998931884766 -23.167999267578125 L -40.446998596191406 -23.086000442504883 L -40.266998291015625 -23.02199935913086 L -40.08100128173828 -22.975000381469727 L -39.89099884033203 -22.94700050354004 L -39.70000076293945 -22.937000274658203 L -39.50899887084961 -22.94700050354004 L -39.319000244140625 -22.975000381469727 L -39.132999420166016 -23.02199935913086 L -38.952999114990234 -23.086000442504883 L -38.9119987487793 -23.10543441772461 L -38.779998779296875 -23.167999267578125 L -38.6150016784668 -23.267000198364258 L -38.46099853515625 -23.381000518798828 L -38.319000244140625 -23.509000778198242 L -38.191001892089844 -23.650999069213867 L -38.07699966430664 -23.80500030517578 L -37.97800064086914 -23.969999313354492 L -37.895999908447266 -24.14299964904785 L -37.832000732421875 -24.322999954223633 L -37.78499984741211 -24.509000778198242 L -37.77512741088867 -24.576000213623047 L -37.75699996948242 -24.698999404907227 L -37.74700164794922 -24.889999389648438 L -37.75699996948242 -25.08099937438965 L -37.78499984741211 -25.270999908447266 L -37.832000732421875 -25.457000732421875 L -37.895999908447266 -25.636999130249023 L -37.97800064086914 -25.809999465942383 L -38.07699966430664 -25.975000381469727 L -38.191001892089844 -26.128999710083008 L -38.319000244140625 -26.270999908447266 L -38.46099853515625 -26.39900016784668 L -38.6150016784668 -26.51300048828125 L -38.779998779296875 -26.61199951171875 L -38.9119987487793 -26.6745662689209 L -38.952999114990234 -26.694000244140625 L -39.132999420166016 -26.757999420166016 L -39.319000244140625 -26.80500030517578 L -39.50899887084961 -26.83300018310547 L -39.70000076293945 -26.841999053955078 L -39.89099884033203 -26.83300018310547 L -40.08100128173828 -26.80500030517578 L -40.266998291015625 -26.757999420166016 L -40.446998596191406 -26.694000244140625 L -40.619998931884766 -26.61199951171875 L -40.78499984741211 -26.51300048828125 L -40.93899917602539 -26.39900016784668 M 127.29299926757812 112.84100341796875 L 127.302001953125 112.6500015258789 L 127.30152893066406 112.63999938964844 L 127.29299926757812 112.45899963378906 L 127.26499938964844 112.26899719238281 L 127.21800231933594 112.08300018310547 L 127.15399932861328 111.90299987792969 L 127.0719985961914 111.7300033569336 L 126.97599792480469 111.56999969482422 L 126.9729995727539 111.56500244140625 L 126.85900115966797 111.41100311279297 L 126.73100280761719 111.26899719238281 L 126.58899688720703 111.14099884033203 L 126.43499755859375 111.0270004272461 L 126.2699966430664 110.9280014038086 L 126.09700012207031 110.84600067138672 L 125.91699981689453 110.78199768066406 L 125.73100280761719 110.73500061035156 L 125.54100036621094 110.70700073242188 L 125.3499984741211 110.697998046875 L 125.15899658203125 110.70700073242188 L 124.96900177001953 110.73500061035156 L 124.9280014038086 110.745361328125 L 124.78299713134766 110.78199768066406 L 124.60299682617188 110.84600067138672 L 124.43000030517578 110.9280014038086 L 124.26499938964844 111.0270004272461 L 124.11100006103516 111.14099884033203 L 123.96900177001953 111.26899719238281 L 123.84100341796875 111.41100311279297 L 123.72599792480469 111.56500244140625 L 123.62799835205078 111.7300033569336 L 123.5459976196289 111.90299987792969 L 123.48200225830078 112.08300018310547 L 123.43499755859375 112.26899719238281 L 123.40699768066406 112.45899963378906 L 123.39752197265625 112.63999938964844 L 123.39700317382812 112.6500015258789 L 123.40699768066406 112.84100341796875 L 123.43499755859375 113.03099822998047 L 123.48200225830078 113.21700286865234 L 123.5459976196289 113.39700317382812 L 123.62799835205078 113.56999969482422 L 123.68383026123047 113.66400146484375 L 123.72599792480469 113.73500061035156 L 123.84100341796875 113.88899993896484 L 123.96900177001953 114.03099822998047 L 124.11100006103516 114.15899658203125 L 124.26499938964844 114.27400207519531 L 124.43000030517578 114.37200164794922 L 124.60299682617188 114.4540023803711 L 124.78299713134766 114.51799774169922 L 124.9280014038086 114.55464172363281 L 124.96900177001953 114.56500244140625 L 125.15899658203125 114.59300231933594 L 125.3499984741211 114.60299682617188 L 125.54100036621094 114.59300231933594 L 125.73100280761719 114.56500244140625 L 125.91699981689453 114.51799774169922 L 126.09700012207031 114.4540023803711 L 126.2699966430664 114.37200164794922 L 126.43499755859375 114.27400207519531 L 126.58899688720703 114.15899658203125 L 126.73100280761719 114.03099822998047 L 126.85900115966797 113.88899993896484 L 126.9729995727539 113.73500061035156 L 126.97599792480469 113.7300033569336 L 127.0719985961914 113.56999969482422 L 127.15399932861328 113.39700317382812 L 127.21800231933594 113.21700286865234 L 127.26499938964844 113.03099822998047 L 127.29299926757812 112.84100341796875 M -95.94100189208984 -79.97200012207031 L -96.72000122070312 -80.25700378417969 L -98.30400085449219 -80.25700378417969 L -101.58300018310547 -80.25700378417969 L -102.36100006103516 -79.97200012207031 L -103.08399963378906 -79.08300018310547 L -103.08399963378906 -78.29499816894531 L -102.36100006103516 -77.40599822998047 L -101.58300018310547 -77.12100219726562 L -98.30400085449219 -77.12100219726562 L -96.72000122070312 -77.12100219726562 L -95.94100189208984 -77.40599822998047 L -95.21900177001953 -78.29499816894531 L -95.21900177001953 -79.08300018310547 L -95.94100189208984 -79.97200012207031 M -127.02999877929688 114.37200164794922 L -126.97599792480469 114.339599609375 L -126.86499786376953 114.27300262451172 L -126.71099853515625 114.15899658203125 L -126.56900024414062 114.03099822998047 L -126.44100189208984 113.88899993896484 L -126.3270034790039 113.73500061035156 L -126.22799682617188 113.56999969482422 L -126.14600372314453 113.39700317382812 L -126.08200073242188 113.21700286865234 L -126.03500366210938 113.03099822998047 L -126.00700378417969 112.84100341796875 L -125.99800109863281 112.6500015258789 L -125.99847412109375 112.63999938964844 L -126.00700378417969 112.45899963378906 L -126.03500366210938 112.26899719238281 L -126.08200073242188 112.08300018310547 L -126.14600372314453 111.90299987792969 L -126.22799682617188 111.7300033569336 L -126.3270034790039 111.56500244140625 L -126.44100189208984 111.41100311279297 L -126.56900024414062 111.26899719238281 L -126.71099853515625 111.14099884033203 L -126.86499786376953 111.0270004272461 L -126.97599792480469 110.96040344238281 L -127.02999877929688 110.9280014038086 L -127.2030029296875 110.84600067138672 L -127.38300323486328 110.78199768066406 L -127.56900024414062 110.73500061035156 L -127.75900268554688 110.70700073242188 L -127.94999694824219 110.697998046875 L -128.14100646972656 110.70700073242188 L -128.33099365234375 110.73500061035156 L -128.51699829101562 110.78199768066406 L -128.69700622558594 110.84600067138672 L -128.8699951171875 110.9280014038086 L -129.0240020751953 111.02040100097656 L -129.03500366210938 111.0270004272461 L -129.18899536132812 111.14099884033203 L -129.33099365234375 111.26899719238281 L -129.45899963378906 111.41100311279297 L -129.572998046875 111.56500244140625 L -129.6719970703125 111.7300033569336 L -129.75399780273438 111.90299987792969 L -129.8179931640625 112.08300018310547 L -129.86500549316406 112.26899719238281 L -129.89300537109375 112.45899963378906 L -129.90248107910156 112.63999938964844 L -129.9029998779297 112.6500015258789 L -129.89300537109375 112.84100341796875 L -129.86500549316406 113.03099822998047 L -129.8179931640625 113.21700286865234 L -129.75399780273438 113.39700317382812 L -129.6719970703125 113.56999969482422 L -129.572998046875 113.73500061035156 L -129.45899963378906 113.88899993896484 L -129.33099365234375 114.03099822998047 L -129.18899536132812 114.15899658203125 L -129.03500366210938 114.27300262451172 L -129.0240020751953 114.27960205078125 L -128.8699951171875 114.37200164794922 L -128.69700622558594 114.4540023803711 L -128.51699829101562 114.51799774169922 L -128.33099365234375 114.56500244140625 L -128.14100646972656 114.59300231933594 L -127.94999694824219 114.60299682617188 L -127.75900268554688 114.59300231933594 L -127.56900024414062 114.56500244140625 L -127.38300323486328 114.51799774169922 L -127.2030029296875 114.4540023803711 L -127.02999877929688 114.37200164794922 M 99.82599639892578 97.11399841308594 L 100.46452331542969 96.32798767089844 L 100.54900360107422 96.2239990234375 L 100.54900360107422 95.43800354003906 L 99.82599639892578 94.5469970703125 L 99.0479965209961 94.26200103759766 L 98.30400085449219 94.26200103759766 L 95.00199890136719 94.26200103759766 L 94.2239990234375 94.5469970703125 L 93.50199890136719 95.43800354003906 L 93.50199890136719 96.2239990234375 L 94.2239990234375 97.11399841308594 L 95.00199890136719 97.39900207519531 L 98.30400085449219 97.39900207519531 L 98.94962310791016 97.39900207519531 L 99.0479965209961 97.39900207519531 L 99.82599639892578 97.11399841308594 M 111.5719985961914 97.39900207519531 L 114.68800354003906 97.39900207519531 L 116.9540023803711 97.39900207519531 L 117.7300033569336 97.11399841308594 L 118.45500183105469 96.2239990234375 L 118.45500183105469 95.43800354003906 L 117.7300033569336 94.5469970703125 L 116.9540023803711 94.26200103759766 L 114.68800354003906 94.26200103759766 L 111.5719985961914 94.26200103759766 L 110.79499816894531 94.5469970703125 L 110.0719985961914 95.43800354003906 L 110.0719985961914 96.2239990234375 L 110.79499816894531 97.11399841308594 L 111.5719985961914 97.39900207519531 M 104.91699981689453 98.3010025024414 L 106.19400024414062 98.177001953125 L 106.49600219726562 97.96305847167969 L 107.23999786376953 97.43599700927734 L 107.78399658203125 96.27400207519531 L 107.68000030517578 94.99500274658203 L 106.95800018310547 93.93599700927734 L 106.49600219726562 93.71121215820312 L 105.80500030517578 93.375 L 104.52400207519531 93.45800018310547 L 103.4631576538086 94.20800018310547 L 103.38677215576172 94.26200103759766 L 103.3499984741211 94.28800201416016 L 102.84600067138672 95.46800231933594 L 102.98999786376953 96.74199676513672 L 103.74700164794922 97.7770004272461 L 104.91699981689453 98.3010025024414 M 105.71399688720703 100.65299987792969 L 104.9280014038086 100.65299987792969 L 104.89244079589844 100.68196105957031 L 104.03804016113281 101.37699890136719 L 104.03762817382812 101.37812042236328 L 104.02655792236328 101.40811920166016 L 103.75199890136719 102.15499877929688 L 103.75199890136719 105.69599914550781 L 104.02655792236328 106.44287872314453 L 104.03804016113281 106.4739990234375 L 104.89244079589844 107.16808319091797 L 104.9280014038086 107.1969985961914 L 104.92803955078125 107.1969985961914 L 105.71399688720703 107.1969985961914 L 106.60399627685547 106.4739990234375 L 106.88899993896484 105.69599914550781 L 106.88899993896484 102.15499877929688 L 106.60399627685547 101.37699890136719 L 105.71399688720703 100.65299987792969 M 36.888999938964844 -26.822999954223633 L 36.86399841308594 -26.81931495666504 L 36.69900131225586 -26.795000076293945 L 36.51300048828125 -26.74799919128418 L 36.33300018310547 -26.68400001525879 L 36.20641326904297 -26.624000549316406 L 36.15999984741211 -26.601999282836914 L 35.994998931884766 -26.503000259399414 L 35.840999603271484 -26.388999938964844 L 35.69900131225586 -26.26099967956543 L 35.57099914550781 -26.118999481201172 L 35.457000732421875 -25.96500015258789 L 35.358001708984375 -25.799999237060547 L 35.2760009765625 -25.62700080871582 L 35.21200180053711 -25.44700050354004 L 35.165000915527344 -25.26099967956543 L 35.137001037597656 -25.070999145507812 L 35.12799835205078 -24.8799991607666 L 35.137001037597656 -24.68899917602539 L 35.15365219116211 -24.576000213623047 L 35.165000915527344 -24.499000549316406 L 35.21200180053711 -24.312999725341797 L 35.2760009765625 -24.132999420166016 L 35.358001708984375 -23.959999084472656 L 35.457000732421875 -23.795000076293945 L 35.57099914550781 -23.641000747680664 L 35.69900131225586 -23.499000549316406 L 35.840999603271484 -23.371000289916992 L 35.994998931884766 -23.256999969482422 L 36.15999984741211 -23.158000946044922 L 36.33300018310547 -23.076000213623047 L 36.51300048828125 -23.011999130249023 L 36.69900131225586 -22.96500015258789 L 36.86399841308594 -22.940683364868164 L 36.888999938964844 -22.937000274658203 L 37.08000183105469 -22.927000045776367 L 37.270999908447266 -22.937000274658203 L 37.46099853515625 -22.96500015258789 L 37.64699935913086 -23.011999130249023 L 37.82699966430664 -23.076000213623047 L 37.88800048828125 -23.10491371154785 L 38 -23.158000946044922 L 38.165000915527344 -23.256999969482422 L 38.319000244140625 -23.371000289916992 L 38.46099853515625 -23.499000549316406 L 38.5890007019043 -23.641000747680664 L 38.702999114990234 -23.795000076293945 L 38.801998138427734 -23.959999084472656 L 38.88399887084961 -24.132999420166016 L 38.9119987487793 -24.211750030517578 L 38.948001861572266 -24.312999725341797 L 38.994998931884766 -24.499000549316406 L 39.00634765625 -24.576000213623047 L 39.02299880981445 -24.68899917602539 L 39.03300094604492 -24.8799991607666 L 39.02299880981445 -25.070999145507812 L 38.994998931884766 -25.26099967956543 L 38.948001861572266 -25.44700050354004 L 38.88399887084961 -25.62700080871582 L 38.801998138427734 -25.799999237060547 L 38.702999114990234 -25.96500015258789 L 38.5890007019043 -26.118999481201172 L 38.46099853515625 -26.26099967956543 L 38.319000244140625 -26.388999938964844 L 38.165000915527344 -26.503000259399414 L 38 -26.601999282836914 L 37.95358657836914 -26.624000549316406 L 37.82699966430664 -26.68400001525879 L 37.64699935913086 -26.74799919128418 L 37.46099853515625 -26.795000076293945 L 37.270999908447266 -26.822999954223633 L 37.08000183105469 -26.832000732421875 L 36.888999938964844 -26.822999954223633 M -102.4469985961914 94.54199981689453 L -103.16999816894531 95.43299865722656 L -103.16999816894531 96.21900177001953 L -103.08220672607422 96.32707977294922 L -102.4469985961914 97.10900115966797 L -101.66899871826172 97.39399719238281 L -101.57437133789062 97.39399719238281 L -98.30400085449219 97.39399719238281 L -97.62300109863281 97.39399719238281 L -96.84500122070312 97.10900115966797 L -96.12300109863281 96.21900177001953 L -96.12300109863281 95.43299865722656 L -96.84500122070312 94.54199981689453 L -97.62300109863281 94.25700378417969 L -98.30400085449219 94.25700378417969 L -101.66899871826172 94.25700378417969 L -102.4469985961914 94.54199981689453 M -126.56900024414062 -94.06900024414062 L -126.4437026977539 -94.20800018310547 L -126.44100189208984 -94.21099853515625 L -126.3270034790039 -94.36499786376953 L -126.22799682617188 -94.52999877929688 L -126.14600372314453 -94.7030029296875 L -126.08200073242188 -94.88300323486328 L -126.03500366210938 -95.06900024414062 L -126.00700378417969 -95.25900268554688 L -125.99800109863281 -95.44999694824219 L -126.00700378417969 -95.64099884033203 L -126.03500366210938 -95.83100128173828 L -126.08200073242188 -96.01699829101562 L -126.14600372314453 -96.1969985961914 L -126.17396545410156 -96.25599670410156 L -126.22799682617188 -96.37000274658203 L -126.3270034790039 -96.53500366210938 L -126.44100189208984 -96.68900299072266 L -126.56900024414062 -96.83100128173828 L -126.71099853515625 -96.95899963378906 L -126.86499786376953 -97.072998046875 L -126.97599792480469 -97.13960266113281 L -127.02999877929688 -97.1719970703125 L -127.2030029296875 -97.25399780273438 L -127.38300323486328 -97.31800079345703 L -127.56900024414062 -97.36499786376953 L -127.75900268554688 -97.39299774169922 L -127.94999694824219 -97.40299987792969 L -128.14100646972656 -97.39299774169922 L -128.33099365234375 -97.36499786376953 L -128.51699829101562 -97.31800079345703 L -128.69700622558594 -97.25399780273438 L -128.8699951171875 -97.1719970703125 L -129.0240020751953 -97.07959747314453 L -129.03500366210938 -97.072998046875 L -129.18899536132812 -96.95899963378906 L -129.33099365234375 -96.83100128173828 L -129.45899963378906 -96.68900299072266 L -129.572998046875 -96.53500366210938 L -129.6719970703125 -96.37000274658203 L -129.7260284423828 -96.25599670410156 L -129.75399780273438 -96.1969985961914 L -129.8179931640625 -96.01699829101562 L -129.86500549316406 -95.83100128173828 L -129.89300537109375 -95.64099884033203 L -129.9029998779297 -95.44999694824219 L -129.89300537109375 -95.25900268554688 L -129.86500549316406 -95.06900024414062 L -129.8179931640625 -94.88300323486328 L -129.75399780273438 -94.7030029296875 L -129.6719970703125 -94.52999877929688 L -129.572998046875 -94.36499786376953 L -129.45899963378906 -94.21099853515625 L -129.456298828125 -94.20800018310547 L -129.33099365234375 -94.06900024414062 L -129.18899536132812 -93.94100189208984 L -129.03500366210938 -93.8270034790039 L -129.0240020751953 -93.82039642333984 L -128.8699951171875 -93.72799682617188 L -128.69700622558594 -93.64600372314453 L -128.51699829101562 -93.58200073242188 L -128.33099365234375 -93.53500366210938 L -128.14100646972656 -93.50700378417969 L -127.94999694824219 -93.49800109863281 L -127.75900268554688 -93.50700378417969 L -127.56900024414062 -93.53500366210938 L -127.38300323486328 -93.58200073242188 L -127.2030029296875 -93.64600372314453 L -127.02999877929688 -93.72799682617188 L -126.97599792480469 -93.7603988647461 L -126.86499786376953 -93.8270034790039 L -126.71099853515625 -93.94100189208984 L -126.56900024414062 -94.06900024414062 M 22.16900062561035 -92.6449966430664 L 22.10099983215332 -93.44400024414062 L 21.246000289916992 -95.27799987792969 L 20.67799949645996 -95.84400177001953 L 19.60300064086914 -96.11299896240234 L 18.91200065612793 -95.79100036621094 L 18.42799949645996 -94.79399871826172 L 18.4950008392334 -93.99500274658203 L 19.35099983215332 -92.16100311279297 L 19.917999267578125 -91.59500122070312 L 20.9950008392334 -91.32499694824219 L 21.684999465942383 -91.64700317382812 L 22.16900062561035 -92.6449966430664 M -106.65799713134766 -84.23500061035156 L -106.37300109863281 -85.01300048828125 L -106.37300109863281 -88.55400085449219 L -106.65799713134766 -89.33300018310547 L -107.5479965209961 -90.05500030517578 L -108.33499908447266 -90.05500030517578 L -109.2249984741211 -89.33300018310547 L -109.50900268554688 -88.55400085449219 L -109.50900268554688 -85.01300048828125 L -109.2249984741211 -84.23500061035156 L -108.33499908447266 -83.51200103759766 L -107.5479965209961 -83.51200103759766 L -106.65799713134766 -84.23500061035156 M 93.31999969482422 -79.96700286865234 L 92.5979995727539 -79.0780029296875 L 92.5979995727539 -78.29000091552734 L 93.31999969482422 -77.4010009765625 L 94.0989990234375 -77.11599731445312 L 98.30400085449219 -77.11599731445312 L 98.96199798583984 -77.11599731445312 L 99.73999786376953 -77.4010009765625 L 100.08401489257812 -77.8239974975586 L 100.46299743652344 -78.29000091552734 L 100.46299743652344 -79.0780029296875 L 99.73999786376953 -79.96700286865234 L 98.96199798583984 -80.25199890136719 L 98.30400085449219 -80.25199890136719 L 94.0989990234375 -80.25199890136719 L 93.31999969482422 -79.96700286865234 M -110.40499877929688 -78.24500274658203 L -110.20773315429688 -77.8239974975586 L -109.86100006103516 -77.08399963378906 L -108.81400299072266 -76.34400177001953 L -107.53800201416016 -76.21800231933594 L -106.49600219726562 -76.68516540527344 L -106.36699676513672 -76.74299621582031 L -105.61100006103516 -77.77899932861328 L -105.46600341796875 -79.0530014038086 L -105.97100067138672 -80.23100280761719 L -106.00769805908203 -80.25700378417969 L -106.49600219726562 -80.6029281616211 L -107.14399719238281 -81.06199645996094 L -108.42500305175781 -81.1449966430664 L -109.5780029296875 -80.58300018310547 L -110.30000305175781 -79.52400207519531 L -110.40499877929688 -78.24500274658203 M -109.76685333251953 94.20800018310547 L -110.30000305175781 94.98999786376953 L -110.40499877929688 96.26899719238281 L -109.86100006103516 97.43099975585938 L -108.81400299072266 98.1719970703125 L -107.53800201416016 98.2959976196289 L -106.49600219726562 97.82972717285156 L -106.36699676513672 97.77200317382812 L -105.61100006103516 96.73699951171875 L -105.46600341796875 95.46299743652344 L -105.97100067138672 94.28299713134766 L -106.00774383544922 94.25700378417969 L -106.49600219726562 93.91151428222656 L -107.14399719238281 93.4530029296875 L -108.42500305175781 93.37000274658203 L -109.5780029296875 93.93099975585938 L -109.76685333251953 94.20800018310547 M -107.54804229736328 84.45899963378906 L -108.33499908447266 84.45899963378906 L -109.2249984741211 85.18299865722656 L -109.50900268554688 85.95999908447266 L -109.50900268554688 89.50199890136719 L -109.28632354736328 90.11199951171875 L -109.2249984741211 90.27999877929688 L -108.33499908447266 91.00199890136719 L -107.5479965209961 91.00199890136719 L -107.51244354248047 90.9731216430664 L -106.65804290771484 90.27999877929688 L -106.65763092041016 90.27888488769531 L -106.64659881591797 90.2488784790039 L -106.5964584350586 90.11199951171875 L -106.37300109863281 89.50199890136719 L -106.37300109863281 85.95999908447266 L -106.64659881591797 85.21408081054688 L -106.65804290771484 85.18299865722656 L -107.51244354248047 84.48796081542969 L -107.5479965209961 84.45899963378906 L -107.54804229736328 84.45899963378906 M 104.9280014038086 -67.31800079345703 L 105.71399688720703 -67.31800079345703 L 106.60399627685547 -68.04100036621094 L 106.88899993896484 -68.81900024414062 L 106.88899993896484 -72.36000061035156 L 106.60399627685547 -73.13800048828125 L 105.87772369384766 -73.72799682617188 L 105.71399688720703 -73.86100006103516 L 104.92803955078125 -73.86100006103516 L 104.9280014038086 -73.86100006103516 L 104.89244079589844 -73.83207702636719 L 104.76432037353516 -73.72799682617188 L 104.03804016113281 -73.13800048828125 L 104.02655792236328 -73.10688018798828 L 103.75199890136719 -72.36000061035156 L 103.75199890136719 -68.81900024414062 L 104.03800201416016 -68.04100036621094 L 104.9280014038086 -67.31800079345703 M 102.84600067138672 -79.0479965209961 L 102.9843521118164 -77.8239974975586 L 102.98999786376953 -77.77400207519531 L 103.74700164794922 -76.73799896240234 L 104.91699981689453 -76.21299743652344 L 106.19400024414062 -76.33899688720703 L 106.49600219726562 -76.55265045166016 L 107.23999786376953 -77.0790023803711 L 107.78399658203125 -78.23999786376953 L 107.68000030517578 -79.51899719238281 L 106.95800018310547 -80.5780029296875 L 106.49600219726562 -80.80319213867188 L 105.80500030517578 -81.13999938964844 L 104.52400207519531 -81.05699920654297 L 103.38673400878906 -80.25199890136719 L 103.3499984741211 -80.22599792480469 L 102.84600067138672 -79.0479965209961 M -108.33499908447266 -73.86599731445312 L -108.50487518310547 -73.72799682617188 L -109.2249984741211 -73.14299774169922 L -109.50900268554688 -72.36499786376953 L -109.50900268554688 -68.8239974975586 L -109.2249984741211 -68.0459976196289 L -108.33499908447266 -67.322998046875 L -107.5479965209961 -67.322998046875 L -106.65799713134766 -68.0459976196289 L -106.37300109863281 -68.8239974975586 L -106.37300109863281 -72.36499786376953 L -106.64659881591797 -73.11187744140625 L -106.65804290771484 -73.14299774169922 L -107.37816619873047 -73.72799682617188 L -107.51244354248047 -73.83708190917969 L -107.5479965209961 -73.86599731445312 L -107.54804229736328 -73.86599731445312 L -108.33499908447266 -73.86599731445312 M 111.91100311279297 -77.11599731445312 L 114.68800354003906 -77.11599731445312 L 115.95800018310547 -77.11599731445312 L 116.73600006103516 -77.4010009765625 L 117.45899963378906 -78.29000091552734 L 117.45899963378906 -79.0780029296875 L 116.73600006103516 -79.96700286865234 L 115.95800018310547 -80.25199890136719 L 114.68800354003906 -80.25199890136719 L 111.91100311279297 -80.25199890136719 L 111.13300323486328 -79.96700286865234 L 110.41100311279297 -79.0780029296875 L 110.41100311279297 -78.29000091552734 L 111.13300323486328 -77.4010009765625 L 111.91100311279297 -77.11599731445312 M -114.53199768066406 -80.25700378417969 L -114.68800354003906 -80.25700378417969 L -118.5780029296875 -80.25700378417969 L -119.35600280761719 -79.97200012207031 L -120.0790023803711 -79.08300018310547 L -120.0790023803711 -78.29499816894531 L -119.35600280761719 -77.40599822998047 L -118.5780029296875 -77.12100219726562 L -114.68800354003906 -77.12100219726562 L -114.53199768066406 -77.12100219726562 L -113.75399780273438 -77.40599822998047 L -113.41452026367188 -77.8239974975586 L -113.03199768066406 -78.29499816894531 L -113.03199768066406 -79.08300018310547 L -113.75399780273438 -79.97200012207031 L -114.53199768066406 -80.25700378417969 M 127.29299926757812 -95.25900268554688 L 127.3030014038086 -95.44999694824219 L 127.29299926757812 -95.64099884033203 L 127.26499938964844 -95.83100128173828 L 127.21800231933594 -96.01699829101562 L 127.15399932861328 -96.1969985961914 L 127.0719985961914 -96.37000274658203 L 126.97599792480469 -96.52999877929688 L 126.9729995727539 -96.53500366210938 L 126.85900115966797 -96.68900299072266 L 126.73100280761719 -96.83100128173828 L 126.58899688720703 -96.95899963378906 L 126.43499755859375 -97.072998046875 L 126.2699966430664 -97.1719970703125 L 126.09700012207031 -97.25399780273438 L 125.91699981689453 -97.31800079345703 L 125.73100280761719 -97.36499786376953 L 125.54100036621094 -97.39299774169922 L 125.3499984741211 -97.40299987792969 L 125.15899658203125 -97.39299774169922 L 124.96900177001953 -97.36499786376953 L 124.9280014038086 -97.3546371459961 L 124.78299713134766 -97.31800079345703 L 124.60299682617188 -97.25399780273438 L 124.43000030517578 -97.1719970703125 L 124.26499938964844 -97.072998046875 L 124.11100006103516 -96.95899963378906 L 123.96900177001953 -96.83100128173828 L 123.84100341796875 -96.68900299072266 L 123.72699737548828 -96.53500366210938 L 123.62799835205078 -96.37000274658203 L 123.57396697998047 -96.25599670410156 L 123.5459976196289 -96.1969985961914 L 123.48200225830078 -96.01699829101562 L 123.43499755859375 -95.83100128173828 L 123.40699768066406 -95.64099884033203 L 123.39800262451172 -95.44999694824219 L 123.40699768066406 -95.25900268554688 L 123.43499755859375 -95.06900024414062 L 123.48200225830078 -94.88300323486328 L 123.5459976196289 -94.7030029296875 L 123.62799835205078 -94.52999877929688 L 123.72699737548828 -94.36499786376953 L 123.84100341796875 -94.21099853515625 L 123.84370422363281 -94.20800018310547 L 123.96900177001953 -94.06900024414062 L 124.11100006103516 -93.94100189208984 L 124.26499938964844 -93.8270034790039 L 124.43000030517578 -93.72799682617188 L 124.60299682617188 -93.64600372314453 L 124.78299713134766 -93.58200073242188 L 124.9280014038086 -93.54535675048828 L 124.96900177001953 -93.53500366210938 L 125.15899658203125 -93.50700378417969 L 125.3499984741211 -93.49800109863281 L 125.54100036621094 -93.50700378417969 L 125.73100280761719 -93.53500366210938 L 125.91699981689453 -93.58200073242188 L 126.09700012207031 -93.64600372314453 L 126.2699966430664 -93.72799682617188 L 126.43499755859375 -93.8270034790039 L 126.58899688720703 -93.94100189208984 L 126.73100280761719 -94.06900024414062 L 126.85629272460938 -94.20800018310547 L 126.85900115966797 -94.21099853515625 L 126.9729995727539 -94.36499786376953 L 126.97599792480469 -94.37000274658203 L 127.0719985961914 -94.52999877929688 L 127.15399932861328 -94.7030029296875 L 127.21800231933594 -94.88300323486328 L 127.26499938964844 -95.06900024414062 L 127.29299926757812 -95.25900268554688 M -114.19300079345703 94.25700378417969 L -114.68800354003906 94.25700378417969 L -119.5739974975586 94.25700378417969 L -120.35099792480469 94.54199981689453 L -121.07499694824219 95.43299865722656 L -121.07499694824219 96.21900177001953 L -120.35099792480469 97.10900115966797 L -119.5739974975586 97.39399719238281 L -114.68800354003906 97.39399719238281 L -114.19300079345703 97.39399719238281 L -113.41600036621094 97.10900115966797 L -112.69300079345703 96.21900177001953 L -112.69300079345703 95.43299865722656 L -113.41600036621094 94.54199981689453 L -114.19300079345703 94.25700378417969 M -37.75699996948242 40.930999755859375 L -37.74800109863281 40.7400016784668 L -37.75699996948242 40.54899978637695 L -37.78499984741211 40.35900115966797 L -37.832000732421875 40.17300033569336 L -37.895999908447266 39.99300003051758 L -37.97800064086914 39.81999969482422 L -38.07699966430664 39.654998779296875 L -38.191001892089844 39.500999450683594 L -38.319000244140625 39.35900115966797 L -38.46099853515625 39.23099899291992 L -38.6150016784668 39.117000579833984 L -38.779998779296875 39.018001556396484 L -38.9119987487793 38.9554328918457 L -38.952999114990234 38.93600082397461 L -39.132999420166016 38.87200164794922 L -39.319000244140625 38.82500076293945 L -39.50899887084961 38.797000885009766 L -39.70000076293945 38.78799819946289 L -39.89099884033203 38.797000885009766 L -40.08100128173828 38.82500076293945 L -40.266998291015625 38.87200164794922 L -40.446998596191406 38.93600082397461 L -40.619998931884766 39.018001556396484 L -40.78499984741211 39.117000579833984 L -40.93899917602539 39.23099899291992 L -40.959999084472656 39.24993133544922 L -41.04339599609375 39.325103759765625 L -41.05556106567383 39.33606719970703 L -41.08100128173828 39.35900115966797 L -41.164859771728516 39.45203399658203 L -41.20899963378906 39.500999450683594 L -41.323001861572266 39.654998779296875 L -41.422000885009766 39.81999969482422 L -41.50400161743164 39.99300003051758 L -41.56800079345703 40.17300033569336 L -41.6150016784668 40.35900115966797 L -41.643001556396484 40.54899978637695 L -41.65299987792969 40.7400016784668 L -41.643001556396484 40.930999755859375 L -41.63872528076172 40.959999084472656 L -41.6150016784668 41.12099838256836 L -41.56800079345703 41.30699920654297 L -41.50400161743164 41.48699951171875 L -41.422000885009766 41.65999984741211 L -41.323001861572266 41.82500076293945 L -41.20899963378906 41.979000091552734 L -41.08100128173828 42.12099838256836 L -40.959999084472656 42.230072021484375 L -40.93899917602539 42.249000549316406 L -40.78499984741211 42.362998962402344 L -40.619998931884766 42.46200180053711 L -40.446998596191406 42.54399871826172 L -40.371829986572266 42.57072830200195 L -40.33769226074219 42.582862854003906 L -40.266998291015625 42.608001708984375 L -40.08100128173828 42.654998779296875 L -39.89099884033203 42.68299865722656 L -39.70000076293945 42.69300079345703 L -39.584754943847656 42.68696594238281 L -39.50899887084961 42.68299865722656 L -39.319000244140625 42.654998779296875 L -39.132999420166016 42.608001708984375 L -38.952999114990234 42.54399871826172 L -38.9119987487793 42.524566650390625 L -38.779998779296875 42.46200180053711 L -38.6150016784668 42.362998962402344 L -38.46099853515625 42.249000549316406 L -38.319000244140625 42.12099838256836 L -38.191001892089844 41.979000091552734 L -38.07699966430664 41.82500076293945 L -37.97800064086914 41.65999984741211 L -37.895999908447266 41.48699951171875 L -37.832000732421875 41.30699920654297 L -37.78499984741211 41.12099838256836 L -37.76127243041992 40.959999084472656 L -37.75699996948242 40.930999755859375 M 104.9280014038086 -90.05000305175781 L 104.03800201416016 -89.3280029296875 L 103.75199890136719 -88.54900360107422 L 103.75199890136719 -85.00800323486328 L 104.03800201416016 -84.2300033569336 L 104.9280014038086 -83.50700378417969 L 105.71399688720703 -83.50700378417969 L 106.60399627685547 -84.2300033569336 L 106.88899993896484 -85.00800323486328 L 106.88899993896484 -88.54900360107422 L 106.60399627685547 -89.3280029296875 L 105.71399688720703 -90.05000305175781 L 104.9280014038086 -90.05000305175781 M -23.98699951171875 0.35299998521804815 L -24.4218807220459 4.440892164675075e-17 L -24.572919845581055 -0.12260042130947109 L -24.697839736938477 -0.22400000691413874 L -24.70400047302246 -0.22900000214576716 L -25.339000701904297 -0.22900000214576716 L -25.34515953063965 -0.22400000691413874 L -25.621118545532227 4.440892164675075e-17 L -26.055999755859375 0.35299998521804815 L -26.285999298095703 0.9810000061988831 L -26.285999298095703 16.159000396728516 L -26.055999755859375 16.785999298095703 L -25.395000457763672 17.32346534729004 L -25.339000701904297 17.368999481201172 L -24.70400047302246 17.368999481201172 L -23.98699951171875 16.785999298095703 L -23.756999969482422 16.159000396728516 L -23.756999969482422 0.9810000061988831 L -23.98699951171875 0.35299998521804815 z" fill="none" stroke="rgb(0,0,255)" stroke-width="0.01mm" />
</svg>