0
SECTION
2
HEADER
9
$INSUNITS
70
4
9
$ACADVER
1
AC1014
9
$HANDSEED
5
FFFF
0
ENDSEC
0
SECTION
2
TABLES
0
TABLE
2
VPORT
5
8
100
AcDbSymbolTable
0
ENDTAB
0
TABLE
2
LTYPE
5
5
100
AcDbSymbolTable
0
LTYPE
5
14
100
AcDbSymbolTableRecord
100
AcDbLinetypeTableRecord
2
BYBLOCK
70
0
0
LTYPE
5
15
100
AcDbSymbolTableRecord
100
AcDbLinetypeTableRecord
2
BYLAYER
70
0
0
ENDTAB
0
TABLE
2
LAYER
5
2
100
AcDbSymbolTable
70
2
0
LAYER
5
50
100
AcDbSymbolTableRecord
100
AcDbLayerTableRecord
2
0
70
0
6
CONTINUOUS
0
ENDTAB
0
TABLE
2
STYLE
5
3
100
AcDbSymbolTable
70
1
0
STYLE
5
11
100
AcDbSymbolTableRecord
100
AcDbTextStyleTableRecord
2
STANDARD
70
0
0
ENDTAB
0
TABLE
2
VIEW
5
6
100
AcDbSymbolTable
70
0
0
ENDTAB
0
TABLE
2
UCS
5
7
100
AcDbSymbolTable
70
0
0
ENDTAB
0
TABLE
2
APPID
5
9
100
AcDbSymbolTable
70
2
0
APPID
5
12
100
AcDbSymbolTableRecord
100
AcDbRegAppTableRecord
2
ACAD
70
0
0
ENDTAB
0
TABLE
2
DIMSTYLE
5
A
100
AcDbSymbolTable
70
1
0
ENDTAB
0
TABLE
2
BLOCK_RECORD
5
1
100
AcDbSymbolTable
70
1
0
BLOCK_RECORD
5
1F
100
AcDbSymbolTableRecord
100
AcDbBlockTableRecord
2
*MODEL_SPACE
0
BLOCK_RECORD
5
1B
100
AcDbSymbolTableRecord
100
AcDbBlockTableRecord
2
*PAPER_SPACE
0
ENDTAB
0
ENDSEC
0
SECTION
2
BLOCKS
0
BLOCK
5
20
100
AcDbEntity
100
AcDbBlockBegin
2
*MODEL_SPACE
0
ENDBLK
5
21
100
AcDbEntity
100
AcDbBlockEnd
0
BLOCK
5
1C
100
AcDbEntity
100
AcDbBlockBegin
2
*PAPER_SPACE
0
ENDBLK
5
1D
100
AcDbEntity
100
AcDbBlockEnd
0
ENDSEC
0
SECTION
2
ENTITIES
0
LINE
5
100
100
AcDbEntity
8
0
100
AcDbLine
10
-89.000001326203346
20
-88.000001311302185
30
0
11
-97.000001445412636
21
-100.00000149011612
31
0
0
LINE
5
101
100
AcDbEntity
8
0
100
AcDbLine
10
-97.000001445412636
20
-100.00000149011612
30
0
11
-127.00000189244747
21
-111.00000165402889
31
0
0
LINE
5
102
100
AcDbEntity
8
0
100
AcDbLine
10
-127.00000189244747
20
-111.00000165402889
30
0
11
-133.00000198185444
21
-105.00000156462193
31
0
0
LINE
5
103
100
AcDbEntity
8
0
100
AcDbLine
10
-133.00000198185444
20
-100.00000149011612
30
0
11
-118.00000175833702
21
-74.000001102685928
31
0
0
LINE
5
104
100
AcDbEntity
8
0
100
AcDbLine
10
-118.00000175833702
20
-74.000001102685928
30
0
11
-104.00000154972076
21
-68.000001013278961
31
0
0
LINE
5
105
100
AcDbEntity
8
0
100
AcDbLine
10
-104.00000154972076
20
-68.000001013278961
30
0
11
-35.706251131292731
21
-12.775335056978426
31
0
0
LINE
5
106
100
AcDbEntity
8
0
100
AcDbLine
10
-32.507830211998019
20
-5.1530012675998274
30
0
11
-32.507830201236025
21
5.6657873234818403
31
0
0
LINE
5
107
100
AcDbEntity
8
0
100
AcDbLine
10
-36.145172024684392
20
13.024974318695357
30
0
11
-104.00000154972076
21
69.456049459809947
31
0
0
LINE
5
108
100
AcDbEntity
8
0
100
AcDbLine
10
-104.00000154972076
20
69.456049459809947
30
0
11
-118.32152747177398
21
75.824231290852438
31
0
0
LINE
5
109
100
AcDbEntity
8
0
100
AcDbLine
10
-118.32152747177398
20
75.824231290852438
30
0
11
-133.00000198185444
21
100.00000149011612
31
0
0
LINE
5
110
100
AcDbEntity
8
0
100
AcDbLine
10
-133.00000198185444
20
104.00000154972076
30
0
11
-127.72399175006095
21
111.17062254354423
31
0
0
LINE
5
111
100
AcDbEntity
8
0
100
AcDbLine
10
-127.72399175006095
20
111.17062254354423
30
0
11
-96.554271056965405
21
102.00000151991844
31
0
0
LINE
5
112
100
AcDbEntity
8
0
100
AcDbLine
10
-96.554271056965405
20
102.00000151991844
30
0
11
-87.345035397641709
21
87.79333202372257
31
0
0
LINE
5
113
100
AcDbEntity
8
0
100
AcDbLine
10
-87.345035397641709
20
87.79333202372257
30
0
11
-32.947579389699058
21
43.42883620168287
31
0
0
LINE
5
114
100
AcDbEntity
8
0
100
AcDbLine
10
-25.891097417236626
20
47.29178297655249
30
0
11
-25.891097285728868
21
102.29618051787311
31
0
0
LINE
5
115
100
AcDbEntity
8
0
100
AcDbLine
10
0
20
-43.235100825919083
30
0
11
-35
21
-43.235100825919083
31
0
0
LINE
5
116
100
AcDbEntity
8
0
100
AcDbLine
10
-35
20
-43.235100825919083
30
0
11
-89.000001326203346
21
-88.000001311302185
31
0
0
SPLINE
5
117
100
AcDbEntity
8
0
100
AcDbSpline
70
12
71
2
41
1
41
3.0000000000000089
41
1
72
6
73
3
74
0
42
0.000000001
43
0.0000000001
44
0.0000000001
40
0
40
0
40
0
40
0.87811898938900224
40
0.87811898938900224
40
0.87811898938900224
10
-32.50783009165292
20
-5.147139486821894
30
0
10
-32.50783009165292
20
-10.188982402872124
30
0
10
-35.70958216608615
20
-12.778028797546712
30
0
0
SPLINE
5
118
100
AcDbEntity
8
0
100
AcDbSpline
70
12
71
2
41
1
41
2.9999999999999911
41
1
72
6
73
3
74
0
42
0.000000001
43
0.0000000001
44
0.0000000001
40
0
40
0
40
0
40
0.87095234222036644
40
0.87095234222036644
40
0.87095234222036644
10
-36.14896017887849
20
13.028124845714812
30
0
10
-32.50783009165292
20
10.000000149011612
30
0
10
-32.50783009165292
20
5.6612733131227007
30
0
0
CIRCLE
5
119
100
AcDbEntity
8
0
100
AcDbCircle
10
-126.54034389237631
20
-104.51478672897966
30
0
40
1.9500000000000002
0
LWPOLYLINE
5
120
100
AcDbEntity
8
0
100
AcDbPolyline
90
4
70
1
43
0.0
10
-109.00000162422657
20
-97.000001445412636
10
-109.00000162422657
20
-93.000001385807991
42
-0.99999999999999989
10
-105.00000156462193
20
-93.000001385807991
10
-105.00000156462193
20
-97.000001445412636
42
-0.99999999999999989
0
LINE
5
121
100
AcDbEntity
8
0
100
AcDbLine
10
-107.00000159442425
20
-93.000001385807991
30
0
11
-107.00000159442425
21
-97.000001445412636
31
0
0
LWPOLYLINE
5
122
100
AcDbEntity
8
0
100
AcDbPolyline
90
4
70
1
43
0.0
10
-109.00000162422657
20
-76.000001385807991
42
-0.99999999999999989
10
-105.00000156462193
20
-76.000001385807991
10
-105.00000156462193
20
-80.000001445412636
42
-0.99999999999999989
10
-109.00000162422657
20
-80.000001445412636
0
LINE
5
123
100
AcDbEntity
8
0
100
AcDbLine
10
-107.00000159442425
20
-76.000001385807991
30
0
11
-107.00000159442425
21
-80.000001445412636
31
0
0
LWPOLYLINE
5
124
100
AcDbEntity
8
0
100
AcDbPolyline
90
4
70
1
43
0.0
10
-114.00000159442428
20
-84.500001356005669
42
-0.99999999999999989
10
-114.00000159442428
20
-88.500001415610313
10
-118.00000165402892
20
-88.500001415610313
42
-0.99999999999999989
10
-118.00000165402892
20
-84.500001356005669
0
LWPOLYLINE
5
125
100
AcDbEntity
8
0
100
AcDbPolyline
90
4
70
1
43
0.0
10
-96.000001594424276
20
-84.500001356005669
42
-0.99999999999999989
10
-96.000001594424276
20
-88.500001415610313
10
-100.00000165402892
20
-88.500001415610313
42
-0.99999999999999989
10
-100.00000165402892
20
-84.500001356005669
0
CIRCLE
5
126
100
AcDbEntity
8
0
100
AcDbCircle
10
-106.92387156315668
20
-86.586493967644145
30
0
40
2.5537882623390811
0
LWPOLYLINE
5
127
100
AcDbEntity
8
0
100
AcDbPolyline
90
4
70
1
43
0.0
10
-105.00000156462193
20
81.499998614192009
10
-105.00000156462193
20
77.499998554587364
42
-0.99999999999999989
10
-109.00000162422657
20
77.499998554587364
10
-109.00000162422657
20
81.499998614192009
42
-0.99999999999999989
0
LWPOLYLINE
5
128
100
AcDbEntity
8
0
100
AcDbPolyline
90
4
70
1
43
0.0
10
-100.00000165402892
20
85.999998584389687
42
-0.99999999999999989
10
-100.00000165402892
20
89.999998643994331
10
-96.000001594424276
20
89.999998643994331
42
-0.99999999999999989
10
-96.000001594424276
20
85.999998584389687
0
CIRCLE
5
129
100
AcDbEntity
8
0
100
AcDbCircle
10
-106.92387156315668
20
87.913506032355855
30
0
40
2.5537882623390811
0
LWPOLYLINE
5
130
100
AcDbEntity
8
0
100
AcDbPolyline
90
4
70
1
43
0.0
10
-105.00000156462193
20
94.49999855458735
42
-0.99999999999999989
10
-109.00000162422657
20
94.49999855458735
10
-109.00000162422657
20
98.499998614191995
42
-0.99999999999999989
10
-105.00000156462193
20
98.499998614191995
0
LWPOLYLINE
5
131
100
AcDbEntity
8
0
100
AcDbPolyline
90
4
70
1
43
0.0
10
-118.00000165402892
20
89.999998643994331
10
-114.00000159442428
20
89.999998643994331
42
-0.99999999999999989
10
-114.00000159442428
20
85.999998584389687
10
-118.00000165402892
20
85.999998584389687
42
-0.99999999999999989
0
CIRCLE
5
132
100
AcDbEntity
8
0
100
AcDbCircle
10
-126.50301598582837
20
103.6214923051875
30
0
40
1.9500000000000002
0
CIRCLE
5
133
100
AcDbEntity
8
0
100
AcDbCircle
10
-38.302314739421924
20
-32.52065602316376
30
0
40
1.9500000000000002
0
CIRCLE
5
134
100
AcDbEntity
8
0
100
AcDbCircle
10
-38.300000573694703
20
33.000000491738319
30
0
40
1.9500000000000002
0
ARC
5
135
100
AcDbEntity
8
0
100
AcDbCircle
10
-30.476689497710858
20
47.291782987515994
30
0
40
4.5855920804742283
100
AcDbArc
50
237.39544891595992
51
360
0
LWPOLYLINE
5
136
100
AcDbEntity
8
0
100
AcDbPolyline
90
4
70
1
43
0.0
10
-25.424326564095793
20
-7.0000001043081284
10
-25.424326564095793
20
8.0000001192092896
42
-0.99999999999999989
10
-22.575674151159944
20
8.0000001192092896
10
-22.575674151159944
20
-7.0000001043081284
42
-0.99999999999999989
0
LINE
5
137
100
AcDbEntity
8
0
100
AcDbLine
10
-24.000000357627869
20
8.0000001192092896
30
0
11
-24.000000357627869
21
-7.0000001043081284
31
0
0
CIRCLE
5
138
100
AcDbEntity
8
0
100
AcDbCircle
10
106.92387156315668
20
87.913506032355855
30
0
40
2.5537882623390811
0
LWPOLYLINE
5
139
100
AcDbEntity
8
0
100
AcDbPolyline
90
4
70
1
43
0.0
10
109.00000162422657
20
-80.000001445412636
42
-0.99999999999999989
10
105.00000156462193
20
-80.000001445412636
10
105.00000156462193
20
-76.000001385807991
42
-0.99999999999999989
10
109.00000162422657
20
-76.000001385807991
0
LWPOLYLINE
5
140
100
AcDbEntity
8
0
100
AcDbPolyline
90
4
70
1
43
0.0
10
118.00000165402892
20
-84.500001356005683
42
-0.99999999999999989
10
118.00000165402892
20
-88.500001415610328
10
114.00000159442428
20
-88.500001415610328
42
-0.99999999999999989
10
114.00000159442428
20
-84.500001356005683
0
LINE
5
141
100
AcDbEntity
8
0
100
AcDbLine
10
127.72399175006095
20
111.17062254354423
30
0
11
96.554271056965405
21
102.00000151991844
31
0
0
CIRCLE
5
142
100
AcDbEntity
8
0
100
AcDbCircle
10
126.74034389237632
20
-104.51478672897966
30
0
40
1.9500000000000002
0
LINE
5
143
100
AcDbEntity
8
0
100
AcDbLine
10
107.00000159442425
20
-93.000001385807991
30
0
11
107.00000159442425
21
-97.000001445412636
31
0
0
LWPOLYLINE
5
144
100
AcDbEntity
8
0
100
AcDbPolyline
90
4
70
1
43
0.0
10
105.00000156462193
20
98.499998614191995
42
-0.99999999999999989
10
109.00000162422657
20
98.499998614191995
10
109.00000162422657
20
94.49999855458735
42
-0.99999999999999989
10
105.00000156462193
20
94.49999855458735
0
LWPOLYLINE
5
145
100
AcDbEntity
8
0
100
AcDbPolyline
90
4
70
1
43
0.0
10
118.00000165402892
20
89.999998643994331
10
114.00000159442428
20
89.999998643994331
42
0.99999999999999989
10
114.00000159442428
20
85.999998584389687
10
118.00000165402892
20
85.999998584389687
42
0.99999999999999989
0
LWPOLYLINE
5
146
100
AcDbEntity
8
0
100
AcDbPolyline
90
4
70
1
43
0.0
10
109.00000162422657
20
77.499998554587364
10
109.00000162422657
20
81.499998614192009
42
0.99999999999999989
10
105.00000156462193
20
81.499998614192009
10
105.00000156462193
20
77.499998554587364
42
0.99999999999999989
0
SPLINE
5
147
100
AcDbEntity
8
0
100
AcDbSpline
70
12
71
2
41
1
41
2.9999999999999911
41
1
72
6
73
3
74
0
42
0.000000001
43
0.0000000001
44
0.0000000001
40
0
40
0
40
0
40
0.87095234222036644
40
0.87095234222036644
40
0.87095234222036644
10
36.14896017887849
20
13.02812484571481
30
0
10
32.50783009165292
20
10.000000149011612
30
0
10
32.50783009165292
20
5.6612733131226989
30
0
0
LWPOLYLINE
5
148
100
AcDbEntity
8
0
100
AcDbPolyline
90
4
70
1
43
0.0
10
22.575674151159944
20
8.0000001192092896
42
-0.99999999999999989
10
25.424326564095793
20
8.0000001192092896
10
25.424326564095793
20
-7.0000001043081284
42
-0.99999999999999989
10
22.575674151159944
20
-7.0000001043081284
0
LINE
5
149
100
AcDbEntity
8
0
100
AcDbLine
10
36.145172024684392
20
13.024974318695364
30
0
11
104.00000154972076
21
69.456049459809947
31
0
0
LINE
5
150
100
AcDbEntity
8
0
100
AcDbLine
10
24.000000357627869
20
8.0000001192092896
30
0
11
24.000000357627869
21
-7.0000001043081284
31
0
0
LINE
5
151
100
AcDbEntity
8
0
100
AcDbLine
10
35
20
-43.235100825919091
30
0
11
89.000001326203346
21
-88.000001311302185
31
0
0
LINE
5
152
100
AcDbEntity
8
0
100
AcDbLine
10
0
20
-43.235100825919091
30
0
11
35
21
-43.235100825919091
31
0
0
LINE
5
153
100
AcDbEntity
8
0
100
AcDbLine
10
104.00000154972076
20
-68.000001013278961
30
0
11
35.706251131292731
21
-12.775335056978427
31
0
0
LINE
5
154
100
AcDbEntity
8
0
100
AcDbLine
10
89.000001326203346
20
-88.000001311302185
30
0
11
97.000001445412636
21
-100.00000149011612
31
0
0
ARC
5
155
100
AcDbEntity
8
0
100
AcDbCircle
10
30.476689497710858
20
47.291782987515987
30
0
40
4.5855920804742301
100
AcDbArc
50
180
51
302.60455108404017
0
CIRCLE
5
156
100
AcDbEntity
8
0
100
AcDbCircle
10
38.302314739421924
20
-32.520656023163745
30
0
40
1.9500000000000002
0
LINE
5
157
100
AcDbEntity
8
0
100
AcDbLine
10
133.00000198185444
20
104.00000154972076
30
0
11
127.72399175006095
21
111.17062254354423
31
0
0
LINE
5
158
100
AcDbEntity
8
0
100
AcDbLine
10
32.507830211998019
20
-5.1530012675998194
30
0
11
32.507830201236025
21
5.6657873234818368
31
0
0
CIRCLE
5
159
100
AcDbEntity
8
0
100
AcDbCircle
10
126.70301598582837
20
103.5714923051875
30
0
40
1.9500000000000002
0
SPLINE
5
160
100
AcDbEntity
8
0
100
AcDbSpline
70
12
71
2
41
1
41
3.0000000000000089
41
1
72
6
73
3
74
0
42
0.000000001
43
0.0000000001
44
0.0000000001
40
0
40
0
40
0
40
0.87811898938900201
40
0.87811898938900201
40
0.87811898938900201
10
32.50783009165292
20
-5.1471394868218923
30
0
10
32.50783009165292
20
-10.188982402872142
30
0
10
35.70958216608615
20
-12.778028797546703
30
0
0
LINE
5
161
100
AcDbEntity
8
0
100
AcDbLine
10
96.554271056965405
20
102.00000151991844
30
0
11
87.345035397641709
21
87.79333202372257
31
0
0
LINE
5
162
100
AcDbEntity
8
0
100
AcDbLine
10
104.00000154972076
20
69.456049459809947
30
0
11
118.32152747177398
21
75.824231290852438
31
0
0
SPLINE
5
163
100
AcDbEntity
8
0
100
AcDbSpline
70
12
71
2
41
1
41
2.9999999999999734
41
1
72
6
73
3
74
0
42
0.000000001
43
0.0000000001
44
0.0000000001
40
0
40
0
40
0
40
0.72643170463377393
40
0.72643170463377393
40
0.72643170463377393
10
25.891097440231778
20
102.29105823711627
30
0
10
25.891097440231778
20
106.58531203173133
30
0
10
21.986298424727934
20
106.64785396916295
30
0
0
LWPOLYLINE
5
164
100
AcDbEntity
8
0
100
AcDbPolyline
90
4
70
1
43
0.0
10
109.00000162422657
20
-97.000001445412636
10
109.00000162422657
20
-93.000001385807991
42
0.99999999999999989
10
105.00000156462193
20
-93.000001385807991
10
105.00000156462193
20
-97.000001445412636
42
0.99999999999999989
0
LWPOLYLINE
5
165
100
AcDbEntity
8
0
100
AcDbPolyline
90
4
70
1
43
0.0
10
96.000001594424276
20
-88.500001415610328
10
100.00000165402892
20
-88.500001415610328
42
0.99999999999999989
10
100.00000165402892
20
-84.500001356005683
10
96.000001594424276
20
-84.500001356005683
42
0.99999999999999989
0
LWPOLYLINE
5
166
100
AcDbEntity
8
0
100
AcDbPolyline
90
4
70
1
43
0.0
10
96.000001594424276
20
85.999998584389687
10
100.00000165402892
20
85.999998584389687
42
0.99999999999999989
10
100.00000165402892
20
89.999998643994331
10
96.000001594424276
20
89.999998643994331
42
0.99999999999999989
0
LINE
5
167
100
AcDbEntity
8
0
100
AcDbLine
10
87.345035397641709
20
87.79333202372257
30
0
11
32.947579389699058
21
43.42883620168287
31
0
0
LINE
5
168
100
AcDbEntity
8
0
100
AcDbLine
10
127.00000189244747
20
-111.00000165402889
30
0
11
133.00000198185444
21
-105.00000156462193
31
0
0
LINE
5
169
100
AcDbEntity
8
0
100
AcDbLine
10
107.00000159442425
20
-76.000001385807991
30
0
11
107.00000159442425
21
-80.000001445412636
31
0
0
LINE
5
170
100
AcDbEntity
8
0
100
AcDbLine
10
25.891097417236626
20
47.29178297655249
30
0
11
25.891097285728868
21
102.29618051787311
31
0
0
LINE
5
171
100
AcDbEntity
8
0
100
AcDbLine
10
97.000001445412636
20
-100.00000149011612
30
0
11
127.00000189244747
21
-111.00000165402889
31
0
0
CIRCLE
5
172
100
AcDbEntity
8
0
100
AcDbCircle
10
106.92387156315668
20
-86.586493967644145
30
0
40
2.5537882623390811
0
LINE
5
173
100
AcDbEntity
8
0
100
AcDbLine
10
133.00000198185444
20
-100.00000149011612
30
0
11
118.00000175833702
21
-74.000001102685928
31
0
0
LINE
5
174
100
AcDbEntity
8
0
100
AcDbLine
10
118.32152747177398
20
75.824231290852438
30
0
11
133.00000198185444
21
100.00000149011612
31
0
0
LINE
5
175
100
AcDbEntity
8
0
100
AcDbLine
10
118.00000175833702
20
-74.000001102685928
30
0
11
104.00000154972076
21
-68.000001013278961
31
0
0
CIRCLE
5
176
100
AcDbEntity
8
0
100
AcDbCircle
10
38.300000573694703
20
33.000000491738319
30
0
40
1.9500000000000002
0
LINE
5
177
100
AcDbEntity
8
0
100
AcDbLine
10
-5.000000074505806
20
117.00000174343586
30
0
11
-4.9129397887345139
21
111.5644185858465
31
0
0
LINE
5
178
100
AcDbEntity
8
0
100
AcDbLine
10
-19.917372683334417
20
111.26531789529807
30
0
11
-19.917372683334417
21
117.00000174343586
31
0
0
ARC
5
179
100
AcDbEntity
8
0
100
AcDbCircle
10
-12.458686378920111
20
116.88053825367575
30
0
40
7.4596429480936397
100
AcDbArc
50
0.91761045777083616
51
179.08238954222918
0
SPLINE
5
180
100
AcDbEntity
8
0
100
AcDbSpline
70
12
71
2
41
1
41
2.9999999999999858
41
1
72
6
73
3
74
0
42
0.000000001
43
0.0000000001
44
0.0000000001
40
0
40
0
40
0
40
0.89868981144423732
40
0.89868981144423732
40
0.89868981144423732
10
-4.9130287969432125
20
111.56996217121055
30
0
10
-4.838591875176534
20
106.92250335313324
30
0
10
0.67723227022512211
20
107.01084861588046
30
0
0
CIRCLE
5
181
100
AcDbEntity
8
0
100
AcDbCircle
10
-12.500000186264515
20
117.50000175088644
30
0
40
2.9500000000000002
0
LINE
5
182
100
AcDbEntity
8
0
100
AcDbLine
10
15
20
-15
30
0
11
-15
21
15
31
0
0
LINE
5
183
100
AcDbEntity
8
0
100
AcDbLine
10
-15
20
-15
30
0
11
15
21
15
31
0
0
CIRCLE
5
184
100
AcDbEntity
8
0
100
AcDbCircle
10
-15
20
-15
30
0
40
1.7500000000000004
0
CIRCLE
5
185
100
AcDbEntity
8
0
100
AcDbCircle
10
15
20
-15
30
0
40
1.7500000000000004
0
CIRCLE
5
186
100
AcDbEntity
8
0
100
AcDbCircle
10
-15
20
15
30
0
40
1.7500000000000004
0
CIRCLE
5
187
100
AcDbEntity
8
0
100
AcDbCircle
10
15
20
15
30
0
40
1.7499999999999996
0
SPLINE
5
188
100
AcDbEntity
8
0
100
AcDbSpline
70
12
71
2
41
1
41
2.165571487210356
41
1
72
6
73
3
74
0
42
0.000000001
43
0.0000000001
44
0.0000000001
40
0
40
0
40
0
40
0.57801502439726915
40
0.57801502439726915
40
0.57801502439726915
10
-22.07094454642267
20
106.64644099386214
30
0
10
-19.83963627474791
20
106.95360902586583
30
0
10
-19.917372683334417
20
111.26531789529807
30
0
0
SPLINE
5
189
100
AcDbEntity
8
0
100
AcDbSpline
70
12
71
2
41
1
41
2.9709561299738736
41
1
72
6
73
3
74
0
42
0.000000001
43
0.0000000001
44
0.0000000001
40
0
40
0
40
0
40
0.71802412306490881
40
0.71802412306490881
40
0.71802412306490881
10
-25.891097440231778
20
102.29105823711627
30
0
10
-25.891097440231778
20
106.58003559774593
30
0
10
-22.07094454642267
20
106.64644099386214
30
0
0
LINE
5
190
100
AcDbEntity
8
0
100
AcDbLine
10
21.986298424727934
20
106.64785396916295
30
0
11
0.67723227022512211
21
107.01084861588046
31
0
0
LINE
5
191
100
AcDbEntity
8
0
100
AcDbLine
10
-133.00000198185444
20
-105.00000156462193
30
0
11
-133.35262321788494
21
-104.64738032859144
31
0
0
LINE
5
192
100
AcDbEntity
8
0
100
AcDbLine
10
-133.00000198185444
20
-100.00000149011612
30
0
11
-133.35262321788494
21
-100.61121163256898
31
0
0
LINE
5
193
100
AcDbEntity
8
0
100
AcDbLine
10
133.00000198185444
20
-100.00000149011612
30
0
11
133.35262321788494
21
-100.61121163256898
31
0
0
LINE
5
194
100
AcDbEntity
8
0
100
AcDbLine
10
133.00000198185444
20
-105.00000156462193
30
0
11
133.35262321788494
21
-104.64738032859144
31
0
0
LINE
5
195
100
AcDbEntity
8
0
100
AcDbLine
10
0
20
45
30
0
11
11.062894315278129
21
45.000000053277205
31
0
0
LINE
5
196
100
AcDbEntity
8
0
100
AcDbLine
10
18.000000196495133
20
55.000000839669795
30
0
11
18.000000268220901
21
85.000001266598701
31
0
0
LINE
5
197
100
AcDbEntity
8
0
100
AcDbLine
10
15.192063774758713
20
85.988663493301374
30
0
11
4.0000000596046448
21
70.000001043081284
31
0
0
LINE
5
198
100
AcDbEntity
8
0
100
AcDbLine
10
4.0000000596046448
20
70.000001043081284
30
0
11
15.192063698305439
21
54.011338626393872
31
0
0
LINE
5
199
100
AcDbEntity
8
0
100
AcDbLine
10
12.829305111587633
20
48.038972883913871
30
0
11
2.0525896629304063
21
63.126375320795809
31
0
0
LINE
5
200
100
AcDbEntity
8
0
100
AcDbLine
10
12.829305216599071
20
91.961029247079423
30
0
11
2.0525896957981482
21
76.873626861728695
31
0
0
LINE
5
201
100
AcDbEntity
8
0
100
AcDbLine
10
0
20
95.000002086162567
30
0
11
11.06289443482108
21
95.000002086162567
31
0
0
LINE
5
202
100
AcDbEntity
8
0
100
AcDbLine
10
-12.829305321610512
20
48.038973006606113
30
0
11
-2.0807196248580029
21
63.08699337225282
31
0
0
LINE
5
203
100
AcDbEntity
8
0
100
AcDbLine
10
0
20
45
30
0
11
-11.062894554364032
21
45.000000159076485
31
0
0
LINE
5
204
100
AcDbEntity
8
0
100
AcDbLine
10
-12.829305216599071
20
91.961029247079423
30
0
11
-2.0807195918019517
21
76.913008830036006
31
0
0
LINE
5
205
100
AcDbEntity
8
0
100
AcDbLine
10
0
20
95.000002086162567
30
0
11
-11.06289443482108
21
95.000002086162567
31
0
0
LINE
5
206
100
AcDbEntity
8
0
100
AcDbLine
10
-15.192063774758713
20
85.988663493301374
30
0
11
-4.0000000596046448
21
70.000001043081284
31
0
0
LINE
5
207
100
AcDbEntity
8
0
100
AcDbLine
10
-18.000000196495133
20
55.000000839669795
30
0
11
-18.000000268220901
21
85.000001266598701
31
0
0
LINE
5
208
100
AcDbEntity
8
0
100
AcDbLine
10
-4.0000000596046448
20
70.000001043081284
30
0
11
-15.192063698305439
21
54.011338626393872
31
0
0
SPLINE
5
209
100
AcDbEntity
8
0
100
AcDbSpline
70
12
71
2
41
1
41
0.81818181818182167
41
1
72
6
73
3
74
0
42
0.000000001
43
0.0000000001
44
0.0000000001
40
0
40
0
40
0
40
0.46645008714778868
40
0.46645008714778868
40
0.46645008714778868
10
12.829305216599071
20
91.961029247079423
30
0
10
14.999999999999998
20
95.000002086162567
30
0
10
11.06289443482108
20
95.000002086162567
30
0
0
SPLINE
5
210
100
AcDbEntity
8
0
100
AcDbSpline
70
12
71
2
41
1
41
0.81818181818182167
41
1
72
6
73
3
74
0
42
0.000000001
43
0.0000000001
44
0.0000000001
40
0
40
0
40
0
40
0.46645008714778868
40
0.46645008714778868
40
0.46645008714778868
10
-12.829305216599071
20
91.961029247079423
30
0
10
-14.999999999999998
20
95.000002086162567
30
0
10
-11.06289443482108
20
95.000002086162567
30
0
0
SPLINE
5
211
100
AcDbEntity
8
0
100
AcDbSpline
70
12
71
2
41
1
41
0.81818181818182167
41
1
72
6
73
3
74
0
42
0.000000001
43
0.0000000001
44
0.0000000001
40
0
40
0
40
0
40
0.46645008714778796
40
0.46645008714778796
40
0.46645008714778796
10
12.829305111587633
20
48.038972883913871
30
0
10
14.99999988045705
20
45.000000034451084
30
0
10
11.062894315278129
20
45.000000053277205
30
0
0
SPLINE
5
212
100
AcDbEntity
8
0
100
AcDbSpline
70
12
71
2
41
1
41
0.81818181818182167
41
1
72
6
73
3
74
0
42
0.000000001
43
0.0000000001
44
0.0000000001
40
0
40
0
40
0
40
0.46645008714778796
40
0.46645008714778796
40
0.46645008714778796
10
-12.829305321610512
20
48.038973006606113
30
0
10
-15.00000011954295
20
45.000000177902606
30
0
10
-11.062894554364032
20
45.000000159076485
30
0
0
SPLINE
5
213
100
AcDbEntity
8
0
100
AcDbSpline
70
12
71
2
41
1
41
0.81818181818181845
41
1
72
6
73
3
74
0
42
0.000000001
43
0.0000000001
44
0.0000000001
40
0
40
0
40
0
40
0.51859927179104726
40
0.51859927179104726
40
0.51859927179104726
10
18.000000268220901
20
85.000001266598701
30
0
10
18.000000268220901
20
90.000001341104507
30
0
10
15.192063774758713
20
85.988663493301374
30
0
0
SPLINE
5
214
100
AcDbEntity
8
0
100
AcDbSpline
70
12
71
2
41
1
41
0.81818181818181845
41
1
72
6
73
3
74
0
42
0.000000001
43
0.0000000001
44
0.0000000001
40
0
40
0
40
0
40
0.51859927179104792
40
0.51859927179104792
40
0.51859927179104792
10
18.000000196495133
20
55.000000839669795
30
0
10
18.000000172586542
20
50.000000765163996
30
0
10
15.192063698305439
20
54.011338626393872
30
0
0
SPLINE
5
215
100
AcDbEntity
8
0
100
AcDbSpline
70
12
71
2
41
1
41
0.81818181818181845
41
1
72
6
73
3
74
0
42
0.000000001
43
0.0000000001
44
0.0000000001
40
0
40
0
40
0
40
0.51859927179104792
40
0.51859927179104792
40
0.51859927179104792
10
-18.000000196495133
20
55.000000839669795
30
0
10
-18.000000172586542
20
50.000000765163996
30
0
10
-15.192063698305439
20
54.011338626393872
30
0
0
SPLINE
5
216
100
AcDbEntity
8
0
100
AcDbSpline
70
12
71
2
41
1
41
0.81818181818181845
41
1
72
6
73
3
74
0
42
0.000000001
43
0.0000000001
44
0.0000000001
40
0
40
0
40
0
40
0.51859927179104726
40
0.51859927179104726
40
0.51859927179104726
10
-18.000000268220901
20
85.000001266598701
30
0
10
-18.000000268220901
20
90.000001341104507
30
0
10
-15.192063774758713
20
85.988663493301374
30
0
0
SPLINE
5
217
100
AcDbEntity
8
0
100
AcDbSpline
70
12
71
2
41
1
41
0.81818181818182245
41
1
72
6
73
3
74
0
42
0.000000001
43
0.0000000001
44
0.0000000001
40
0
40
0
40
0
40
0.48852522533256271
40
0.48852522533256271
40
0.48852522533256271
10
2.0525896629304063
20
63.126375320795809
30
0
10
0
20
66.000000983476639
30
0
10
-2.0807196248580029
20
63.08699337225282
30
0
0
SPLINE
5
218
100
AcDbEntity
8
0
100
AcDbSpline
70
12
71
2
41
1
41
0.81818181818182245
41
1
72
6
73
3
74
0
42
0.000000001
43
0.0000000001
44
0.0000000001
40
0
40
0
40
0
40
0.4885252253325621
40
0.4885252253325621
40
0.4885252253325621
10
2.0525896957981482
20
76.873626861728695
30
0
10
1.9126873418429113e-08
20
74.00000120886277
30
0
10
-2.0807195918019517
20
76.913008830036006
30
0
0
LINE
5
219
100
AcDbEntity
8
0
100
AcDbLine
10
-133.35262321788494
20
-100.61121163256898
30
0
11
-133.35262321788494
21
-104.64738032859144
31
0
0
LINE
5
220
100
AcDbEntity
8
0
100
AcDbLine
10
-133.00000198185444
20
104.00000154972076
30
0
11
-133.00000198185444
21
100.00000149011612
31
0
0
LINE
5
221
100
AcDbEntity
8
0
100
AcDbLine
10
133.35262321788494
20
-100.61121163256898
30
0
11
133.35262321788494
21
-104.64738032859144
31
0
0
LINE
5
222
100
AcDbEntity
8
0
100
AcDbLine
10
133.00000198185444
20
104.00000154972076
30
0
11
133.00000198185444
21
100.00000149011612
31
0
0
ENDSEC
0
SECTION
2
OBJECTS
0
DICTIONARY
5
C
100
AcDbDictionary
3
ACAD_GROUP
350
D
3
ACAD_MLINESTYLE
350
17
0
DICTIONARY
5
D
100
AcDbDictionary
0
DICTIONARY
5
1A
330
C
100
AcDbDictionary
0
DICTIONARY
5
17
100
AcDbDictionary
0
ENDSEC
0
EOF
